{"title":"Tinkerbell Secret Of The Wings 2012 BDRip XVID AC3 HQ Hive-CM8","uid":7754294,"size":1404925900,"categoryP":"video","categoryS":"movies","magnet":"?xt=urn:btih:5b84ae58f4e2d053f96cecfcd0d5c5d231c43264&amp;dn=Tinkerbell+Secret+Of+The+Wings+2012+BDRip+XVID+AC3+HQ+Hive-CM8&amp;tr=udp%3A%2F%2Ftracker.openbittorrent.com%3A80&amp;tr=udp%3A%2F%2Fopen.demonii.com%3A1337&amp;tr=udp%3A%2F%2Ftracker.coppersurfer.tk%3A6969&amp;tr=udp%3A%2F%2Fexodus.desync.com%3A6969","seeders":49,"leechers":9,"uploader":"lyrical1986","files":4,"time":1351047241,"description":"Tinkerbell.Secret.Of.The.Wings.2012.BDRip.XVID.AC3.HQ.Hive-CM8 Thx Hive\nCM8 Doing It Right The First Time \n\nSource: Bluray\nVideo: 720x400 @bitrate 1700 2pass\nAudio: English DTS to AC3 5.1 @448\nSubs: Yes, English in srt /subs\nSample: Yes, included &lt;a href=&quot;\nhttp://www.imdb.com/title/tt1217213/&quot; rel=&quot;nofollow&quot; target=&quot;_NEW&quot;&gt;\nhttp://www.imdb.com/title/tt1217213/&lt;/a&gt;\n\nGeneral\nComplete name: Tinkerbell.Secret.Of.The.Wings.2012.BDRip.XVID.AC3.HQ.Hive-CM8.avi\nFormat: AVI\nFormat/Info: Audio Video Interleave\nFile size: 1.29 GiB\nDuration: 1h 15mn\nOverall bit rate: 2 468 Kbps\nWriting application: Nandub v1.0rc2\nWriting library: Nandub build 1853/release\n\nVideo\nID: 0\nFormat: MPEG-4 Visual\nFormat profile: Advanced Simple@L5\nFormat settings, BVOP: 1\nFormat settings, QPel: Yes\nFormat settings, GMC: No warppoints\nFormat settings, Matrix: Default (H.263)\nMuxing mode: Packed bitstream\nCodec ID: XVID\nCodec ID/Hint: XviD\nDuration: 1h 15mn\nBit rate: 2 011 Kbps\nWidth: 720 pixels\nHeight: 400 pixels\nDisplay aspect ratio: 16:9\nFrame rate: 23.976 fps\nColor space: YUV\nChroma subsampling: 4:2:0\nBit depth: 8 bits\nScan type: Progressive\nCompression mode: Lossy\nBits/(Pixel*Frame): 0.291\nStream size: 1.05 GiB (81%)\nWriting library: XviD 1.2.1 (UTC 2008-12-04)\n\nAudio\nID: 1\nFormat: AC-3\nFormat/Info: Audio Coding 3\nMode extension: CM (complete main)\nFormat settings, Endianness: Big\nCodec ID: 2000\nDuration: 1h 15mn\nBit rate mode: Constant\nBit rate: 448 Kbps\nChannel(s): 6 channels\nChannel positions: Front: L C R, Side: L R, LFE\nSampling rate: 48.0 KHz\nBit depth: 16 bits\nCompression mode: Lossy\nStream size: 241 MiB (18%)\nAlignment: Split accross interleaves\nInterleave, duration: 42 ms (1.00 video frame)\nInterleave, preload duration: 500 ms\n\nPlot:\nTinker Bell meets Periwinkle and ventures into the winter woods with\nher and Tinker Bell's other friends to find the secret of fairy wings\n\nCast:\nTimothy Dalton ... Lord Milori (voice)\nLucy Hale ... Periwinkle (voice)\nMegan Hilty ... Rosetta (voice)\nAnjelica Huston ... Queen Clarion (voice)\n &lt;a href=&quot;\nhttp://img23.imageshack.us/img23/5066/ttitii.png&quot; rel=&quot;nofollow&quot; target=&quot;_NEW&quot;&gt;\nhttp://img23.imageshack.us/img23/5066/ttitii.png&lt;/a&gt; &lt;a href=&quot;\nhttp://img837.imageshack.us/img837/9421/ttitiiti.png&quot; rel=&quot;nofollow&quot; target=&quot;_NEW&quot;&gt;\nhttp://img837.imageshack.us/img837/9421/ttitiiti.png&lt;/a&gt; &lt;a href=&quot;\nhttp://img248.imageshack.us/img248/9410/tttitiiti.png&quot; rel=&quot;nofollow&quot; target=&quot;_NEW&quot;&gt;\nhttp://img248.imageshack.us/img248/9410/tttitiiti.png&lt;/a&gt; &lt;a href=&quot;\nhttp://img853.imageshack.us/img853/7633/86604055.png&quot; rel=&quot;nofollow&quot; target=&quot;_NEW&quot;&gt;\nhttp://img853.imageshack.us/img853/7633/86604055.png&lt;/a&gt; &lt;a href=&quot;\nhttp://img88.imageshack.us/img88/7256/ttii.png&quot; rel=&quot;nofollow&quot; target=&quot;_NEW&quot;&gt;\nhttp://img88.imageshack.us/img88/7256/ttii.png&lt;/a&gt;","torrent":{"xt":"urn:btih:5b84ae58f4e2d053f96cecfcd0d5c5d231c43264","amp;dn":"Tinkerbell+Secret+Of+The+Wings+2012+BDRip+XVID+AC3+HQ+Hive-CM8","amp;tr":["udp%3A%2F%2Ftracker.openbittorrent.com%3A80","udp%3A%2F%2Fopen.demonii.com%3A1337","udp%3A%2F%2Ftracker.coppersurfer.tk%3A6969","udp%3A%2F%2Fexodus.desync.com%3A6969"],"infoHash":"5b84ae58f4e2d053f96cecfcd0d5c5d231c43264","infoHashBuffer":{"type":"Buffer","data":[91,132,174,88,244,226,208,83,249,108,236,252,208,213,197,210,49,196,50,100]},"announce":[],"urlList":[]}}